<?xml version="1.0" standalone="no"?>
<!DOCTYPE svg PUBLIC "-//W3C//DTD SVG 20010904//EN"
 "http://www.w3.org/TR/2001/REC-SVG-20010904/DTD/svg10.dtd">
<svg version="1.0" xmlns="http://www.w3.org/2000/svg"
 width="512.000000pt" height="512.000000pt" viewBox="0 0 512.000000 512.000000"
 preserveAspectRatio="xMidYMid meet">
<metadata>
Created by potrace 1.14, written by Peter Selinger 2001-2017
</metadata>
<g transform="translate(0.000000,512.000000) scale(0.100000,-0.100000)"
fill="#000000" stroke="none">
<path d="M3340 4601 c-36 -9 -416 -145 -844 -300 -429 -156 -798 -286 -820
-288 -28 -4 -262 39 -726 132 -730 146 -748 148 -826 108 -47 -24 -99 -89
-114 -141 -15 -56 -14 -3122 2 -3173 14 -49 69 -114 117 -138 51 -27 1429
-301 1509 -301 33 0 85 5 114 11 29 7 411 142 848 301 437 159 815 291 840
294 34 5 207 -26 730 -131 730 -146 748 -148 826 -108 47 24 99 89 114 141 15
56 14 3122 -2 3173 -14 49 -69 114 -117 138 -22 11 -328 77 -742 160 -756 151
-787 155 -909 122z m885 -271 c363 -72 675 -137 693 -145 18 -8 37 -26 42 -41
6 -16 10 -410 10 -1060 l0 -1034 -27 -11 c-16 -7 -48 -13 -73 -16 -66 -6 -99
20 -176 138 -142 218 -232 283 -442 314 -116 18 -175 44 -193 87 -17 42 -15
133 7 248 24 129 24 298 0 368 -25 73 -59 112 -100 112 -74 0 -95 -55 -56
-141 26 -58 26 -152 -1 -327 -36 -235 -19 -326 76 -410 53 -46 127 -74 250
-92 154 -23 211 -65 331 -246 79 -120 114 -156 183 -187 45 -20 130 -26 189
-13 l32 8 0 -196 0 -196 -47 34 c-138 98 -274 128 -404 90 -30 -9 -92 -38
-139 -64 -134 -76 -162 -79 -340 -38 -99 23 -163 20 -239 -13 -68 -29 -142
-111 -172 -191 l-22 -60 -41 6 c-22 4 -42 8 -43 10 -2 1 -2 498 -1 1104 l3
1102 102 -60 c56 -33 111 -60 121 -60 11 0 31 9 46 21 20 16 26 29 26 59 0 49
-19 64 -182 150 -65 34 -118 65 -118 69 0 4 12 6 28 3 29 -4 159 55 200 91 30
27 29 71 -3 102 -33 34 -57 31 -148 -14 l-77 -39 0 339 0 339 23 -5 c12 -2
319 -63 682 -135z m-855 -251 c0 -293 -3 -370 -12 -366 -204 82 -286 125 -333
172 -59 58 -99 137 -115 224 -11 64 -5 151 14 176 10 13 405 163 434 165 9 0
12 -81 12 -371z m-595 -71 c48 -146 141 -261 260 -320 39 -19 116 -54 172 -78
l102 -43 -23 -31 c-29 -38 -66 -110 -77 -149 -23 -79 80 -134 130 -71 l21 27
-2 -1047 -3 -1047 -520 -190 c-285 -104 -525 -189 -532 -189 -7 0 -24 22 -38
49 -13 27 -49 76 -79 109 -87 93 -200 144 -353 158 l-73 7 0 813 0 814 23 0
c12 0 80 14 150 32 110 28 130 30 137 18 35 -63 74 -101 132 -129 77 -38 137
-47 211 -31 81 16 145 63 182 130 26 48 30 65 29 135 0 158 -82 316 -236 453
-157 140 -319 206 -536 219 l-93 6 3 109 3 109 490 178 490 178 7 -83 c3 -46
14 -107 23 -136z m-1857 -15 l683 -136 -3 -115 -3 -115 -50 -17 c-129 -45
-239 -140 -296 -257 -32 -63 -34 -74 -34 -168 0 -89 3 -106 26 -150 55 -104
169 -184 297 -208 l62 -12 0 -812 0 -813 -66 0 c-36 0 -75 5 -86 11 -20 11
-20 16 -12 118 19 228 -1 369 -72 506 -64 122 -122 191 -218 255 -77 52 -134
39 -152 -33 -6 -25 -1 -33 41 -70 115 -102 156 -150 194 -231 62 -129 74 -224
49 -407 -27 -203 44 -296 234 -307 l88 -5 0 -189 0 -188 -22 5 c-13 2 -320 63
-683 135 -363 72 -675 137 -693 145 -18 8 -37 26 -42 41 -13 33 -14 1724 -1
1724 21 0 104 -94 127 -144 13 -29 35 -97 49 -152 42 -168 75 -243 138 -311
78 -84 190 -118 310 -93 64 13 87 36 87 86 0 55 -27 69 -140 69 -96 0 -100 1
-130 30 -46 43 -75 107 -109 236 -39 152 -53 189 -92 255 -43 72 -107 129
-186 166 l-63 30 0 131 0 132 33 15 c62 29 62 111 -1 140 l-32 15 2 388 3 389
28 24 c15 13 33 24 40 24 7 0 319 -61 695 -137z m1072 -519 c79 -18 181 -68
259 -128 136 -105 221 -248 221 -372 0 -75 -27 -105 -101 -112 -75 -6 -119 14
-160 75 -76 111 -109 118 -314 65 -44 -11 -95 -24 -112 -27 l-33 -7 0 135 c0
115 -2 136 -17 149 -42 37 -101 28 -122 -19 -6 -13 -11 -77 -11 -142 l0 -119
-41 9 c-115 26 -196 108 -198 201 -1 43 36 131 75 176 104 122 323 167 554
116z m2780 -2039 c66 -33 120 -83 162 -148 32 -49 33 -55 33 -150 0 -96 -1
-99 -28 -123 -15 -13 -38 -24 -50 -24 -26 0 -1118 218 -1124 224 -7 7 28 80
50 104 53 57 106 64 239 32 158 -38 249 -24 399 62 129 73 209 79 319 23z
m-2796 -438 c59 -27 129 -94 157 -149 l20 -38 -28 -11 c-87 -34 -356 -129
-364 -129 -9 0 -14 352 -4 361 12 13 172 -13 219 -34z"/>
<path d="M4355 4055 c-42 -41 -34 -75 36 -150 l62 -65 -62 -64 c-68 -71 -77
-105 -41 -144 38 -40 76 -30 147 40 l62 61 66 -61 c75 -71 114 -81 153 -39 38
41 29 72 -42 146 l-65 66 65 67 c72 74 80 103 39 143 -40 41 -69 33 -144 -39
l-66 -65 -67 65 c-74 72 -103 80 -143 39z"/>
<path d="M3952 3897 c-29 -31 -29 -77 1 -105 19 -18 35 -22 94 -22 65 0 73 2
92 26 53 68 5 124 -107 124 -48 0 -62 -4 -80 -23z"/>
<path d="M3165 3140 c-33 -13 -44 -32 -60 -111 -24 -109 -22 -139 10 -166 31
-28 65 -29 95 -5 16 13 27 42 40 107 24 115 24 119 -2 149 -27 29 -55 38 -83
26z"/>
<path d="M3074 2667 c-24 -21 -29 -36 -40 -117 -14 -101 -9 -128 28 -154 29
-21 60 -20 88 2 17 14 24 37 36 112 18 123 19 117 -15 151 -36 35 -61 37 -97
6z"/>
<path d="M2207 2436 c-67 -24 -115 -75 -161 -171 -19 -38 -39 -92 -44 -120
-13 -63 0 -147 29 -189 92 -135 371 -140 504 -10 58 56 78 103 78 179 -1 122
-82 252 -188 301 -58 28 -156 32 -218 10z m179 -161 c32 -21 74 -108 74 -156
0 -87 -159 -143 -272 -96 -35 15 -38 19 -38 56 0 70 61 193 105 212 29 13 100
4 131 -16z"/>
<path d="M3015 2207 c-21 -18 -30 -41 -46 -116 -21 -105 -19 -121 18 -151 35
-27 59 -25 92 8 22 22 31 45 45 120 18 99 15 118 -26 146 -31 22 -52 20 -83
-7z"/>
<path d="M2903 1780 c-20 -8 -89 -97 -125 -162 -30 -55 5 -108 71 -108 34 0
83 50 132 135 35 60 36 76 7 109 -27 29 -55 38 -85 26z"/>
<path d="M1922 1587 c-29 -31 -29 -77 1 -106 32 -29 154 -80 195 -81 42 0 72
30 72 73 0 44 -20 61 -117 103 -92 40 -122 42 -151 11z"/>
<path d="M2469 1520 c-81 -10 -103 -20 -118 -59 -16 -38 7 -88 45 -97 38 -10
182 4 214 21 47 24 55 81 15 120 -26 27 -40 28 -156 15z"/>
<path d="M409 3271 c-60 -60 -32 -106 90 -151 102 -36 131 -37 159 -7 41 44
26 99 -36 131 -28 14 -157 56 -174 56 -5 0 -23 -13 -39 -29z"/>
<path d="M812 3053 c-20 -8 -44 -62 -36 -85 6 -22 104 -133 137 -157 24 -17
73 -17 94 0 24 21 34 56 22 87 -5 15 -40 57 -77 95 -54 54 -72 67 -97 66 -16
0 -36 -3 -43 -6z"/>
<path d="M1113 2700 c-26 -10 -43 -39 -43 -72 0 -33 104 -180 137 -194 33 -14
79 -1 93 26 21 39 10 76 -40 148 -68 98 -94 113 -147 92z"/>
<path d="M1330 2283 c-28 -36 -22 -62 35 -162 34 -60 53 -82 76 -90 53 -18 99
13 99 67 0 36 -54 147 -93 190 -30 33 -89 31 -117 -5z"/>
</g>
</svg>
